<svg width="1000" height="1000" viewBox="0 0 1000 1000" fill="none" xmlns="http://www.w3.org/2000/svg">
<path d="M849.008 287.968C875.097 272.094 908.743 289.417 910.977 319.874L919.244 666.666C919.652 683.759 916.311 700.734 909.458 716.397C900.028 737.954 884.322 756.169 864.389 768.67L561.337 958.734C529.45 976.181 490.498 953.212 490.333 916.864L488.803 579.313C488.6 534.659 511.802 493.162 549.949 469.95L849.008 287.968Z" fill="white"/>
<path d="M628.511 572.234L628.818 551.085C628.84 549.592 627.261 548.617 625.935 549.304L605.941 559.671C605.286 560.011 604.876 560.687 604.876 561.425V588.208C604.876 590.435 603.776 592.519 601.939 593.777C598.292 596.271 595.067 599.331 592.383 602.84L588.999 607.266C586.261 610.847 583.833 614.656 581.744 618.653L577.687 626.414C575.676 630.261 574.008 634.277 572.7 638.417L570.805 644.42C569.826 647.519 569.115 650.695 568.848 653.934C568.375 659.666 567.917 669.24 569.334 675.733C570.414 680.683 571.452 682.49 574.665 686.397C578.814 691.441 581.634 694.035 587.549 697.059C594.515 700.621 602.642 700.669 610.466 700.641C613.86 700.629 617.445 700.727 620.425 701.057C624.424 701.502 626.808 701.447 630.198 703.723C631.033 704.282 631.889 705.069 632.677 705.896C635.026 708.357 635.974 711.765 635.974 715.167V725.975C635.974 728.294 635.504 730.59 634.589 732.722C633.739 734.705 632.617 736.559 631.255 738.231L627.682 742.615C624.934 745.988 621.673 748.907 618.018 751.266L609.762 756.591L607.281 757.956C603.102 760.255 598.345 761.292 593.587 760.945L582.662 760.145H582.048C578.987 760.145 576.29 762.16 575.423 765.096L569.262 785.923C568.164 789.637 567.855 794.295 571.018 796.53C573.386 798.202 576.15 797.316 580.885 797.02L602.654 792.577C604.953 792.118 607.097 793.875 607.097 796.219V816.663C607.097 819.058 609.791 820.462 611.753 819.092L627.688 807.967C629.54 806.675 630.643 804.56 630.643 802.301V780.482C630.643 777.997 631.683 775.626 633.512 773.944L640.186 767.805C641.227 766.846 642.199 765.814 643.093 764.717L651.523 754.369C658.76 743.043 661.908 735.432 664.852 721.938C667.775 708.537 669.294 700.613 665.74 686.841C663.477 678.071 661.055 672.76 653.301 667.737C647.26 663.824 643.048 663.29 635.974 661.962C625.891 660.067 619.98 661.962 610.206 659.296C605.116 657.907 601.82 655.985 599.988 650.855C597.767 644.635 598.218 640.345 599.988 633.972C602.1 626.374 605.838 623.284 611.539 618.424C617.069 613.709 620.404 611.592 627.089 609.538C633.016 607.717 641.604 608.306 646.736 608.913C649.223 609.207 651.633 607.733 652.367 605.34L660.718 578.11C661.034 577.078 660.428 575.99 659.383 575.718C653.924 574.294 648.206 574.172 642.691 575.361L634.488 577.13C631.384 577.8 628.466 575.409 628.511 572.234Z" fill="#2A3238"/>
<path d="M708.48 762.2L790.338 713.015V739.265L708.48 788.578V762.2Z" fill="#4DA925"/>
<path d="M557.378 48.6534L857.489 224.107C892.615 244.642 914.206 282.274 914.206 322.962V676.644C914.206 717.332 892.615 754.964 857.489 775.5L557.378 950.953C521.675 971.825 477.491 971.825 441.789 950.953L141.678 775.5C106.552 754.964 84.9607 717.332 84.9607 676.644V322.962C84.9607 282.274 106.552 244.642 141.678 224.106L441.789 48.6533C477.491 27.7806 521.675 27.7806 557.378 48.6534Z" stroke="white" stroke-width="26"/>
</svg>
