<svg width="1000" height="1000" viewBox="0 0 1000 1000" fill="none" xmlns="http://www.w3.org/2000/svg">
<path fill-rule="evenodd" clip-rule="evenodd" d="M452.726 148.003C452.726 144.688 455.414 142 458.729 142H549.775C553.091 142 555.778 144.688 555.778 148.003V229.044C555.778 232.359 553.091 235.047 549.775 235.047H458.729C455.414 235.047 452.726 232.359 452.726 229.044V148.003ZM329.665 261.06C329.665 257.744 332.352 255.057 335.668 255.057H426.713C430.029 255.057 432.716 257.744 432.716 261.06V342.1C432.716 345.416 430.029 348.103 426.713 348.103H335.668C332.352 348.103 329.665 345.416 329.665 342.1V261.06ZM223.612 604.231C223.612 629.097 203.455 649.254 178.589 649.254C153.724 649.254 133.567 629.097 133.567 604.231C133.567 579.366 153.724 559.209 178.589 559.209C203.455 559.209 223.612 579.366 223.612 604.231ZM458.729 255.057C455.414 255.057 452.726 257.744 452.726 261.06V342.1C452.726 345.416 455.414 348.103 458.729 348.103H549.775C553.091 348.103 555.778 345.416 555.778 342.1V261.06C555.778 257.744 553.091 255.057 549.775 255.057H458.729ZM329.665 374.116C329.665 370.8 332.352 368.113 335.668 368.113H426.713C430.029 368.113 432.716 370.8 432.716 374.116V455.157C432.716 458.472 430.029 461.16 426.713 461.16H335.668C332.352 461.16 329.665 458.472 329.665 455.157V374.116ZM458.729 368.113C455.414 368.113 452.726 370.8 452.726 374.116V455.157C452.726 458.472 455.414 461.16 458.729 461.16H549.775C553.091 461.16 555.778 458.472 555.778 455.157V374.116C555.778 370.8 553.091 368.113 549.775 368.113H458.729ZM574.787 374.116C574.787 370.8 577.475 368.113 580.79 368.113H671.836C675.152 368.113 677.839 370.8 677.839 374.116V455.157C677.839 458.472 675.152 461.16 671.836 461.16H580.79C577.475 461.16 574.787 458.472 574.787 455.157V374.116ZM212.606 255.057C209.291 255.057 206.603 257.744 206.603 261.06V342.1C206.603 345.416 209.291 348.103 212.606 348.103H303.652C306.967 348.103 309.655 345.416 309.655 342.1V261.06C309.655 257.744 306.967 255.057 303.652 255.057H212.606ZM84.5423 374.116C84.5423 370.8 87.2299 368.113 90.5453 368.113H181.591C184.906 368.113 187.594 370.8 187.594 374.116V455.157C187.594 458.472 184.906 461.16 181.591 461.16H90.5453C87.2299 461.16 84.5423 458.472 84.5423 455.157V374.116ZM212.606 368.113C209.291 368.113 206.603 370.8 206.603 374.116V455.157C206.603 458.472 209.291 461.16 212.606 461.16H303.652C306.967 461.16 309.655 458.472 309.655 455.157V374.116C309.655 370.8 306.967 368.113 303.652 368.113H212.606ZM27.0135 481.17C27.0135 481.17 0 483.517 0 513.186C0 546.126 3.0015 667.763 72.036 759.309C110.514 810.334 161.081 829.844 202.601 840.849C270.135 858.749 327.164 859.859 391.196 857.358C489.745 851.855 589.795 817.838 639.82 783.821C782.891 704.281 845.923 517.188 845.923 517.188C845.923 517.188 897.449 522.424 939.47 496.177C939.848 495.941 940.254 495.689 940.686 495.421C953.042 487.756 986.466 467.024 1000 420.139C967.484 384.621 889.445 388.623 866.433 394.626C866.32 394.136 866.189 393.303 866.011 392.165C863.829 378.222 854.466 318.419 781.391 279.569C763.882 299.579 753.98 326.092 747.874 345.602C727.364 411.135 762.381 463.161 762.381 463.161C762.381 463.161 749.161 469.797 737.369 473.166C719.86 478.168 708.358 480.669 689.345 480.669C505.253 480.669 203.102 481.17 203.102 481.17H27.0135Z" fill="#2496ED"/>
</svg>
