<svg width="1000" height="1000" viewBox="0 0 1000 1000" fill="none" xmlns="http://www.w3.org/2000/svg">
<ellipse cx="499.649" cy="89.0688" rx="89.1304" ry="89.0688" fill="#D54599"/>
<ellipse cx="143.13" cy="295.547" rx="89.1304" ry="89.0688" fill="#D54599"/>
<ellipse cx="143.13" cy="708.502" rx="89.1304" ry="89.0688" fill="#D54599"/>
<ellipse cx="499.649" cy="910.931" rx="89.1304" ry="89.0688" fill="#D54599"/>
<ellipse cx="856.175" cy="708.502" rx="89.1304" ry="89.0688" fill="#D54599"/>
<ellipse cx="856.175" cy="295.547" rx="89.1304" ry="89.0688" fill="#D54599"/>
<rect width="288.626" height="41.3349" transform="matrix(0.866175 -0.499741 0.500259 0.865876 190.482 244.663)" fill="#D54599"/>
<path d="M540.165 864.886L790.166 720.648L810.844 756.439L560.843 900.677L540.165 864.886Z" fill="#D54599"/>
<path d="M204.325 716.599L454.326 860.837L433.648 896.628L183.647 752.39L204.325 716.599Z" fill="#D54599"/>
<path d="M560.844 101.215L810.845 245.453L790.166 281.244L540.166 137.006L560.844 101.215Z" fill="#D54599"/>
<path d="M532.898 104.439L842.807 640.846L806.991 661.51L497.082 125.103L532.898 104.439Z" fill="#D54599"/>
<path d="M151.233 653.814L461.142 117.408L496.957 138.072L187.049 674.478L151.233 653.814Z" fill="#D54599"/>
<path d="M207.955 688.259L827.772 688.259V729.586H207.955L207.955 688.259Z" fill="#D54599"/>
<path d="M835.917 676.113L835.917 348.177H876.431V676.113L835.917 676.113Z" fill="#D54599"/>
<path d="M122.872 672.064L122.872 344.129H163.386L163.386 672.064L122.872 672.064Z" fill="#D54599"/>
</svg>
