<svg width="1000" height="1000" viewBox="0 0 1000 1000" fill="none" xmlns="http://www.w3.org/2000/svg">
<g clip-path="url(#clip0)">
<path fill-rule="evenodd" clip-rule="evenodd" d="M259 126.624C259 126.624 249.042 79.3574 300.826 45.9606C369.539 1.6456 500.99 6.12681 500.99 6.12681C500.99 6.12681 630.45 3.61688 694.184 50.4419C742.98 86.2923 740.989 126.624 740.989 126.624V230.192V368.614C740.989 368.614 739.993 417.41 707.628 449.277C670.206 486.124 614.516 488.115 614.516 488.115H358.584C358.584 488.115 297.605 488.46 263.979 526.953C226.137 570.272 226.137 622.554 226.137 622.554V749.026H142.486C142.486 749.026 89.8359 753.508 44.8936 692.761C-1.15413 630.521 0.0806169 508.032 0.0806169 508.032C0.0806169 508.032 -3.52116 398.489 37.4248 333.262C80.2461 265.046 142.486 265.046 142.486 265.046L226.137 265.046L500.99 265.046V230.192H259V126.624ZM362.568 170.441C386.767 170.441 406.385 150.824 406.385 126.624C406.385 102.424 386.767 82.8068 362.568 82.8068C338.368 82.8068 318.751 102.424 318.751 126.624C318.751 150.824 338.368 170.441 362.568 170.441Z" fill="url(#paint0_linear)"/>
<path fill-rule="evenodd" clip-rule="evenodd" d="M741 879.556C741 879.556 750.958 926.823 699.174 960.22C630.461 1004.53 499.01 1000.05 499.01 1000.05C499.01 1000.05 369.55 1002.56 305.816 955.738C257.02 919.888 259.011 879.556 259.011 879.556V775.988V637.566C259.011 637.566 260.007 588.77 292.372 556.903C329.794 520.056 385.484 518.065 385.484 518.065H641.416C641.416 518.065 702.395 517.72 736.021 479.227C773.863 435.908 773.863 383.626 773.863 383.626V257.154H857.514C857.514 257.154 910.164 252.672 955.106 313.419C1001.15 375.659 999.919 498.148 999.919 498.148C999.919 498.148 1003.52 607.691 962.575 672.919C919.754 741.134 857.514 741.134 857.514 741.134L773.863 741.134L499.01 741.134L499.01 775.988L741 775.988V879.556ZM637.432 835.739C613.233 835.739 593.615 855.357 593.615 879.556C593.615 903.756 613.233 923.373 637.432 923.373C661.632 923.373 681.249 903.756 681.249 879.556C681.249 855.357 661.632 835.739 637.432 835.739Z" fill="url(#paint1_linear)"/>
</g>
<defs>
<linearGradient id="paint0_linear" x1="130.456" y1="151.891" x2="546.221" y2="559.191" gradientUnits="userSpaceOnUse">
<stop stop-color="#387AB1"/>
<stop offset="1" stop-color="#366A96"/>
</linearGradient>
<linearGradient id="paint1_linear" x1="821.571" y1="828.567" x2="488.959" y2="506.412" gradientUnits="userSpaceOnUse">
<stop stop-color="#FFC937"/>
<stop offset="1" stop-color="#FFDC4D"/>
</linearGradient>
<clipPath id="clip0">
<rect width="1000" height="1000" fill="white"/>
</clipPath>
</defs>
</svg>
