<svg width="1000" height="1000" viewBox="0 0 1000 1000" fill="none" xmlns="http://www.w3.org/2000/svg">
<path d="M586.873 499.812C586.873 547.69 548.061 586.502 500.183 586.502C452.305 586.502 413.493 547.69 413.493 499.812C413.493 451.934 452.305 413.122 500.183 413.122C548.061 413.122 586.873 451.934 586.873 499.812Z" fill="#61DAFB"/>
<path d="M172.327 609.973L172.327 609.972C131.411 591.871 101.192 571.515 81.8613 551.295L81.8612 551.295C62.7342 531.288 56.5 514.004 56.5 500C56.5 485.996 62.7342 468.712 81.8612 448.705L81.8617 448.704C101.192 428.484 131.41 408.129 172.327 390.028L172.327 390.027C253.996 353.895 369.973 330.407 500.445 330.407C630.918 330.407 746.894 353.895 828.564 390.027L837.088 370.759L828.564 390.028C869.481 408.129 899.699 428.484 919.029 448.705L935.293 433.157L919.03 448.705C938.156 468.711 944.39 485.996 944.39 500C944.39 514.004 938.156 531.288 919.03 551.295C899.699 571.515 869.48 591.871 828.564 609.972L837.667 630.549L828.564 609.973C746.894 646.105 630.918 669.593 500.445 669.593C369.973 669.593 253.996 646.105 172.327 609.973Z" stroke="#61DAFB" stroke-width="45"/>
<path d="M759.743 729.172L759.743 729.173C764.525 773.658 762.005 810.006 754.16 836.857L754.16 836.857C746.397 863.425 734.545 877.466 722.418 884.468C710.29 891.47 692.204 894.713 665.314 888.152L665.314 888.152C638.137 881.522 605.4 865.529 569.265 839.145L569.265 839.145C497.139 786.484 418.809 697.789 353.573 584.796C288.337 471.804 250.69 359.622 241.147 270.827L220.198 273.079L241.147 270.827C236.365 226.341 238.884 189.994 246.73 163.143L225.133 156.832L246.73 163.143C254.493 136.575 266.344 122.534 278.472 115.532C290.6 108.53 308.686 105.287 335.576 111.848C362.752 118.479 395.49 134.471 431.625 160.855L444.893 142.683L431.625 160.855C503.752 213.517 582.081 302.211 647.317 415.203C712.553 528.196 750.201 640.379 759.743 729.172Z" stroke="#61DAFB" stroke-width="45"/>
<path d="M569.265 160.855L569.265 160.855C605.4 134.471 638.138 118.479 665.314 111.848L665.314 111.848C692.204 105.287 710.29 108.53 722.418 115.532C734.546 122.534 746.397 136.575 754.16 163.143L754.16 163.144C762.006 189.994 764.525 226.342 759.743 270.827L759.743 270.828C750.201 359.621 712.553 471.804 647.317 584.797C582.081 697.789 503.752 786.484 431.625 839.145L444.049 856.162L431.625 839.145C395.49 865.529 362.753 881.522 335.576 888.152L340.909 910.011L335.576 888.152C308.686 894.713 290.601 891.47 278.473 884.468C266.345 877.466 254.493 863.425 246.73 836.857C238.885 810.006 236.365 773.658 241.147 729.173L218.776 726.768L241.147 729.173C250.69 640.378 288.337 528.196 353.573 415.204C418.809 302.211 497.139 213.516 569.265 160.855Z" stroke="#61DAFB" stroke-width="45"/>
</svg>
