<svg width="60" height="60" viewBox="0 0 60 60" fill="none" xmlns="http://www.w3.org/2000/svg">
<path fill-rule="evenodd" clip-rule="evenodd" d="M30 60C46.5685 60 60 46.5685 60 30C60 13.4315 46.5685 0 30 0C13.4315 0 0 13.4315 0 30C0 46.5685 13.4315 60 30 60ZM32.939 10.464L46.353 43.51C46.518 43.932 46.6 44.298 46.6 44.523C46.6 45.987 45.446 47 44.127 47C43.467 47 42.944 46.746 42.257 46.156L24.858 31.772L19.03 46.719H14L28.706 10.464C29.091 9.507 29.915 9 30.849 9C31.784 9 32.554 9.507 32.939 10.464ZM39.591 38.443L30.877 16.403L26.424 27.803L39.591 38.443Z" fill="#CC0000"/>
</svg>
