<svg width="1000" height="1000" viewBox="0 0 1000 1000" fill="none" xmlns="http://www.w3.org/2000/svg">
<path fill-rule="evenodd" clip-rule="evenodd" d="M729.817 160.203H57.0506V573.551L781.216 573.551V513.122L899.892 602.615L781.216 692.107V631.678L31.2077 631.678C13.9722 631.678 0 617.706 0 600.47V132.208C0 114.972 13.9722 101 31.2077 101H754.583C771.819 101 785.791 114.972 785.791 132.208L785.791 316.285H729.817V160.203ZM674.919 654.283H722.282V822.205H955.867V394.864L462.877 394.864C451.766 422.621 424.621 442.227 392.896 442.227C351.281 442.227 317.546 408.492 317.546 366.877C317.546 325.263 351.281 291.527 392.896 291.527C424.209 291.527 451.061 310.628 462.436 337.814H968.792C986.028 337.814 1000 351.786 1000 369.021V867.424C1000 884.66 986.028 898.632 968.792 898.632H706.127C688.891 898.632 674.919 884.66 674.919 867.424L674.919 654.283ZM862.218 849.116H806.244V867.415H862.218V849.116Z" fill="#0072C5"/>
<path d="M150.7 737.168H635.092V784.531H150.7V737.168Z" fill="#0072C5"/>
<path d="M317.546 628.449H468.246V738.244H317.546V628.449Z" fill="#0072C5"/>
<path d="M465.016 635.984C465.403 637.919 467.269 666.812 473.504 693.744C474.877 699.672 477.926 705.069 482.261 709.338C484.866 711.903 487.832 714.701 490.312 716.716C500.101 724.67 504.508 725.688 516.146 729.095C538.213 735.553 575.888 737.168 575.888 737.168H468.245L465.016 635.984Z" fill="#0072C5"/>
<path d="M319.698 635.984C319.311 637.919 317.446 666.812 311.21 693.744C309.837 699.672 306.789 705.069 302.453 709.338C299.849 711.903 296.882 714.701 294.402 716.716C284.614 724.67 280.207 725.688 268.568 729.095C246.501 735.553 208.826 737.168 208.826 737.168L320.775 740.397L319.698 635.984Z" fill="#0072C5"/>
</svg>
